<?xml version="1.0" encoding="utf-8"?>
<!-- Generator: Adobe Illustrator 21.1.0, SVG Export Plug-In . SVG Version: 6.00 Build 0)  -->
<svg version="1.1" id="Capa_1" xmlns="http://www.w3.org/2000/svg" xmlns:xlink="http://www.w3.org/1999/xlink" x="0px" y="0px"
	 viewBox="0 0 311.7 66.4" style="enable-background:new 0 0 311.7 66.4;" xml:space="preserve">
<style type="text/css">
	.st0{fill:#1E252B;}
</style>
<g>
	<g>
		<path class="st0" d="M50.5,64.7c-0.8-0.8-1.2-1.9-1.2-3.2s0.4-2.4,1.2-3.2c0.9-0.9,2.6-1.6,5.9-1.6c2.6,0,4.7,0.6,5.8,1.2v1.4
			c-1.3-0.7-3.5-1.3-5.8-1.3c-2.1,0-4,0.4-4.8,1.2c-0.6,0.6-0.9,1.4-0.9,2.4c0,1.1,0.3,1.8,0.9,2.4c0.9,0.9,2.7,1.3,4.8,1.3
			c2.3,0,4.5-0.6,5.8-1.3v1.3c-1.1,0.6-3.2,1.2-5.8,1.2C53.1,66.4,51.3,65.6,50.5,64.7z"/>
		<path class="st0" d="M78.3,58.3c0.8,0.8,1.2,1.9,1.2,3.3c0,1.4-0.4,2.4-1.2,3.3c-0.9,0.9-2.6,1.7-6.1,1.7c-3.5,0-5.2-0.8-6.1-1.6
			c-0.8-0.8-1.2-1.9-1.2-3.3c0-1.4,0.4-2.4,1.2-3.3c0.9-0.9,2.6-1.6,6.1-1.6C75.7,56.6,77.4,57.4,78.3,58.3z M67.3,59
			c-0.6,0.6-0.9,1.3-0.9,2.5c0,1.2,0.3,1.9,0.9,2.5c0.7,0.7,2.2,1.3,4.9,1.3c2.8,0,4.3-0.6,5-1.3c0.6-0.6,0.9-1.3,0.9-2.5
			c0-1.2-0.3-1.9-0.9-2.5c-0.7-0.7-2.2-1.3-4.9-1.3C69.4,57.8,68,58.3,67.3,59z"/>
		<path class="st0" d="M94.7,64.9v-8.1h1.4v9.3h-2L84.3,58v8.1h-1.4v-9.3H85L94.7,64.9z"/>
		<path class="st0" d="M111.8,60.9v1.2h-10.3V65H112v1.2h-12v-9.3h12v1.2h-10.5v2.8H111.8z"/>
		<path class="st0" d="M115.9,64.7c-0.8-0.8-1.2-1.9-1.2-3.2s0.4-2.4,1.2-3.2c0.9-0.9,2.6-1.6,5.9-1.6c2.6,0,4.7,0.6,5.8,1.2v1.4
			c-1.3-0.7-3.5-1.3-5.8-1.3c-2.1,0-4,0.4-4.8,1.2c-0.6,0.6-0.9,1.4-0.9,2.4c0,1.1,0.3,1.8,0.9,2.4c0.9,0.9,2.7,1.3,4.8,1.3
			c2.3,0,4.5-0.6,5.8-1.3v1.3c-1.1,0.6-3.2,1.2-5.8,1.2C118.6,66.4,116.8,65.6,115.9,64.7z"/>
		<path class="st0" d="M144.2,58.1h-6.2v8.1h-1.4v-8.1h-6.2v-1.2h13.9V58.1z"/>
		<path class="st0" d="M152.1,56.8l6.7,9.4h-1.7l-1.7-2.3h-8.8l-1.6,2.3h-1.6l6.7-9.4H152.1z M147.5,62.7h7.1l-3.6-5L147.5,62.7z"/>
		<path class="st0" d="M178.7,66.2h-1.4v-8.3l-6.2,8.3h-1.9l-6.2-8.3v8.3h-1.4v-9.3h2.4l6.2,8.4l6.3-8.4h2.3V66.2z"/>
		<path class="st0" d="M195.4,58.3c0.8,0.8,1.2,1.9,1.2,3.3c0,1.4-0.4,2.4-1.2,3.3c-0.9,0.9-2.6,1.7-6.1,1.7c-3.5,0-5.2-0.8-6.1-1.6
			c-0.8-0.8-1.2-1.9-1.2-3.3c0-1.4,0.4-2.4,1.2-3.3c0.9-0.9,2.6-1.6,6.1-1.6C192.8,56.6,194.6,57.4,195.4,58.3z M184.4,59
			c-0.6,0.6-0.9,1.3-0.9,2.5c0,1.2,0.3,1.9,0.9,2.5c0.7,0.7,2.2,1.3,4.9,1.3c2.8,0,4.3-0.6,5-1.3c0.6-0.6,0.9-1.3,0.9-2.5
			c0-1.2-0.3-1.9-0.9-2.5c-0.7-0.7-2.2-1.3-4.9-1.3C186.6,57.8,185.1,58.3,184.4,59z"/>
		<path class="st0" d="M210.2,64.5c0.3-0.3,0.3-0.6,0.3-0.9c0-0.3-0.1-0.6-0.3-0.8c-0.3-0.3-1-0.5-4.6-0.7c-3.7-0.2-4.9-0.5-5.5-1.1
			c-0.4-0.4-0.5-0.9-0.5-1.5c0-0.6,0.1-1.2,0.6-1.7c0.6-0.6,2-1.1,5.2-1.1c2.6,0,4.6,0.4,5.8,0.9v1.3c-1.4-0.6-3.7-1-5.8-1
			c-2.7,0-3.6,0.3-4,0.7c-0.2,0.2-0.3,0.5-0.3,0.8c0,0.3,0.1,0.6,0.3,0.8c0.4,0.4,1.2,0.6,4.5,0.7c4,0.2,5,0.5,5.6,1.1
			c0.4,0.4,0.5,0.9,0.5,1.5c0,0.6-0.2,1.3-0.6,1.7c-0.6,0.6-1.8,1.2-5.4,1.2c-2.7,0-5.1-0.4-6.6-1.1v-1.2c1.4,0.6,4.2,1.2,6.6,1.2
			C208.9,65.2,209.8,64.9,210.2,64.5z"/>
		<path class="st0" d="M233.9,64.7c-0.8,0.8-2.3,1.5-5.5,1.5h-6.5v-9.3h6.5c3.2,0,4.8,0.7,5.5,1.5c0.8,0.8,1.2,1.9,1.2,3.2
			C235.1,62.8,234.7,63.9,233.9,64.7z M228.3,65c2.5,0,3.8-0.5,4.5-1.1c0.6-0.5,0.9-1.3,0.9-2.4c0-1.1-0.3-1.8-0.9-2.4
			c-0.6-0.6-1.9-1.1-4.5-1.1h-5V65H228.3z"/>
		<path class="st0" d="M250.2,60.9v1.2h-10.3V65h10.5v1.2h-12v-9.3h12v1.2h-10.5v2.8H250.2z"/>
		<path class="st0" d="M268,56.9c2.7,0,3.6,0.3,4.2,1c0.5,0.5,0.7,1.2,0.7,2c0,0.8-0.2,1.5-0.7,2c-0.6,0.6-1.4,1-3.6,1.1l5.4,3.3v0
			h-2.2l-5.4-3.3h-4.6v3.3h-1.4v-9.3H268z M261.8,61.7h6.2c1.9,0,2.6-0.3,3-0.7c0.3-0.3,0.4-0.7,0.4-1.2c0-0.5-0.1-0.9-0.5-1.2
			c-0.4-0.4-1.1-0.6-3-0.6h-6.2V61.7z"/>
		<path class="st0" d="M284.7,56.8l6.7,9.4h-1.7l-1.7-2.3h-8.8l-1.6,2.3h-1.6l6.7-9.4H284.7z M280.1,62.7h7.1l-3.6-5L280.1,62.7z"/>
		<path class="st0" d="M294.2,55.7l3.4-1.9h2.4v0.1l-4.3,1.9L294.2,55.7L294.2,55.7z M294.2,66.2v-9.3h1.4v9.3H294.2z"/>
		<path class="st0" d="M299.1,56.9h12.7v0.5L301.5,65h10.2v1.2h-13v-0.5l10.4-7.6h-9.9V56.9z"/>
	</g>
	<rect x="0.3" y="23.3" class="st0" width="19.9" height="19.9"/>
	<path class="st0" d="M0,10.2L0,10.2C0,4.6,4.6,0,10.2,0h0c5.7,0,10.2,4.6,10.2,10.2v0c0,5.7-4.6,10.2-10.2,10.2h0
		C4.6,20.5,0,15.9,0,10.2z"/>
	<g>
		<rect x="0.3" y="46.6" class="st0" width="19.9" height="4.4"/>
		<rect x="0.3" y="54.3" class="st0" width="19.9" height="4.4"/>
		<rect x="0.3" y="62" class="st0" width="19.9" height="4.4"/>
	</g>
	<g>
		<path class="st0" d="M50,43.2V23.3h4.4v19.9H50z"/>
		<path class="st0" d="M100,43.2h-4.4V26.6L84,43.2h-6L66.5,26.6v16.6h-4.4V23.3h7.2l11.8,17.2L93,23.3h7V43.2z"/>
		<path class="st0" d="M111.9,36.9v6.3h-4.4V23.3h16.3c5.6,0,7.4,0.9,8.8,2.2c1.3,1.3,1.6,2.8,1.6,4.5c0,1.7-0.4,3.3-1.6,4.5
			c-1.3,1.3-3.3,2.3-8.8,2.3H111.9z M124,33.4c3.2,0,4.3-0.4,4.9-1c0.6-0.6,0.8-1.3,0.8-2.2c0-0.9-0.2-1.6-0.8-2.2
			c-0.6-0.6-1.8-1-4.9-1h-12.1v6.5H124z"/>
		<path class="st0" d="M164,39.6v3.6h-24.4V23.3h4.4v16.3H164z"/>
		<path class="st0" d="M186,23.2l13.8,20h-5.1l-3.2-4.7h-17.4l-3.2,4.7h-4.9l13.8-20H186z M176.6,35h12.6l-6.3-9.3L176.6,35z"/>
		<path class="st0" d="M228.6,39.4V23.3h4.4v19.9h-6.2l-18.2-16.3v16.3h-4.4V23.3h6.5L228.6,39.4z"/>
		<path class="st0" d="M268.1,26.9h-12.7v16.3H251V26.9h-12.7v-3.6h29.8V26.9z"/>
		<path class="st0" d="M273.6,43.2V23.3h4.4v19.9H273.6z"/>
		<path class="st0" d="M307,39c0.4-0.4,0.5-0.9,0.5-1.4c0-0.6-0.1-1.1-0.5-1.4c-0.6-0.6-1.8-0.9-8.8-1.3c-7.9-0.4-10.3-1.1-11.7-2.4
			c-0.8-0.8-1.1-1.9-1.1-3.3c0-1.4,0.3-2.8,1.4-3.9c1.4-1.4,4.1-2.4,11.1-2.4c5.5,0,9.7,0.8,12.4,1.8v3.7c-3-1.3-8-2.2-12.4-2.2
			c-5.4,0-7,0.5-7.6,1.2c-0.3,0.3-0.5,0.8-0.5,1.3c0,0.5,0.1,0.9,0.4,1.2c0.6,0.6,1.9,0.9,8.4,1.3c8.4,0.4,10.7,1.1,12.1,2.4
			c0.8,0.8,1.2,2,1.2,3.4c0,1.5-0.3,2.8-1.4,3.9c-1.4,1.4-4.2,2.5-11.7,2.5c-5.5,0-10.9-0.9-14-2.2v-3.7c3,1.4,9.2,2.6,14,2.6
			C304.4,40.2,306.2,39.8,307,39z"/>
	</g>
</g>
</svg>
