<?xml version="1.0" encoding="UTF-8" standalone="no"?>
<svg width="188px" height="40px" viewBox="0 0 188 40" version="1.1" xmlns="http://www.w3.org/2000/svg" xmlns:xlink="http://www.w3.org/1999/xlink">
    <!-- Generator: Sketch 42 (36781) - http://www.bohemiancoding.com/sketch -->
    <title>logo1</title>
    <desc>Created with Sketch.</desc>
    <defs>
        <polygon id="path-1" points="0 39.6688955 187.925282 39.6688955 187.925282 0.00023880597 0 0.00023880597"></polygon>
    </defs>
    <g id="SELECTED" stroke="none" stroke-width="1" fill="none" fill-rule="evenodd">
        <g id="logo1">
            <g id="Page-1">
                <path d="M30.4035769,38.6524179 C29.9148974,38.1676418 29.6744744,37.4930149 29.6744744,36.7306269 C29.6744744,35.9682388 29.9148974,35.2936119 30.4035769,34.8088358 C30.9326282,34.2846567 31.9822949,33.8243582 33.9785897,33.8243582 C35.5573077,33.8243582 36.791359,34.1736119 37.472859,34.5151045 L37.472859,35.3330149 C36.6714487,34.8882388 35.3729231,34.5312239 33.9864231,34.5312239 C32.6957308,34.5312239 31.597859,34.7533134 31.0688077,35.2774925 C30.724141,35.6189851 30.5475897,36.1031642 30.5475897,36.7306269 C30.5475897,37.3580896 30.724141,37.8267463 31.0688077,38.176 C31.597859,38.7001791 32.6957308,38.9300299 33.9785897,38.9300299 C35.3729231,38.9300299 36.6714487,38.5891343 37.472859,38.1676418 L37.472859,38.9461493 C36.791359,39.2876418 35.5573077,39.6368955 33.9785897,39.6368955 C31.9822949,39.6368955 30.9326282,39.176597 30.4035769,38.6524179 Z" id="Fill-1" fill="#1E252B"></path>
                <path d="M40.5251474,35.2376716 C40.1642115,35.5946866 39.9804295,36.0317015 39.9804295,36.730806 C39.9804295,37.4293134 40.1726474,37.8585672 40.5329808,38.2155821 C40.9421218,38.6203582 41.8393397,38.9779701 43.5066346,38.9779701 C45.1817628,38.9779701 46.07175,38.6364776 46.4965577,38.2155821 C46.8412244,37.8740896 47.0412756,37.4293134 47.0412756,36.730806 C47.0412756,36.0317015 46.8412244,35.5946866 46.4881218,35.2454328 C46.0633141,34.8245373 45.1817628,34.4830448 43.5066346,34.4830448 C41.8393397,34.4830448 40.9499551,34.8167761 40.5251474,35.2376716 M47.1937244,34.7773731 C47.6824038,35.2615522 47.9149936,35.9045373 47.9149936,36.730806 C47.9149936,37.5487164 47.6824038,38.1917015 47.185891,38.6758806 C46.6568397,39.2084179 45.5987372,39.6687164 43.5066346,39.6687164 C41.4229679,39.6687164 40.3648654,39.2084179 39.8358141,38.6842388 C39.3386987,38.1917015 39.1067115,37.5487164 39.1067115,36.730806 C39.1067115,35.9045373 39.3386987,35.2693134 39.8358141,34.7773731 C40.3726987,34.2454328 41.4229679,33.7922985 43.5066346,33.7922985 C45.5987372,33.7922985 46.6568397,34.2454328 47.1937244,34.7773731" id="Fill-3" fill="#1E252B"></path>
                <polygon id="Fill-5" fill="#1E252B" points="57.0404654 38.7635821 57.0404654 33.9510448 57.90635 33.9510448 57.90635 39.5098507 56.6879654 39.5098507 50.7888628 34.6501493 50.7888628 39.5098507 49.9308115 39.5098507 49.9308115 33.9510448 51.1974013 33.9510448"></polygon>
                <polygon id="Fill-7" fill="#1E252B" points="67.3834782 36.3494328 67.3834782 37.0485373 61.1475423 37.0485373 61.1475423 38.795403 67.4955551 38.795403 67.4955551 39.5100299 60.2900936 39.5100299 60.2900936 33.9512239 67.4955551 33.9512239 67.4955551 34.6658507 61.1475423 34.6658507 61.1475423 36.3494328"></polygon>
                <path d="M69.8617641,38.6524179 C69.3730846,38.1676418 69.1326615,37.4930149 69.1326615,36.7306269 C69.1326615,35.9682388 69.3730846,35.2936119 69.8617641,34.8088358 C70.3908154,34.2846567 71.4404821,33.8243582 73.4367769,33.8243582 C75.0154949,33.8243582 76.2495462,34.1736119 76.9310462,34.5151045 L76.9310462,35.3330149 C76.1296359,34.8882388 74.8311103,34.5312239 73.4446103,34.5312239 C72.1539179,34.5312239 71.0560462,34.7533134 70.5269949,35.2774925 C70.1823282,35.6189851 70.0057769,36.1031642 70.0057769,36.7306269 C70.0057769,37.3580896 70.1823282,37.8267463 70.5269949,38.176 C71.0560462,38.7001791 72.1539179,38.9300299 73.4367769,38.9300299 C74.8311103,38.9300299 76.1296359,38.5891343 76.9310462,38.1676418 L76.9310462,38.9461493 C76.2495462,39.2876418 75.0154949,39.6368955 73.4367769,39.6368955 C71.4404821,39.6368955 70.3908154,39.176597 69.8617641,38.6524179" id="Fill-9" fill="#1E252B"></path>
                <polygon id="Fill-11" fill="#1E252B" points="86.8666051 34.6659104 83.1156436 34.6659104 83.1156436 39.5100896 82.2419256 39.5100896 82.2419256 34.6659104 78.4909641 34.6659104 78.4909641 33.9512836 86.8666051 33.9512836"></polygon>
                <path d="M88.8694077,37.4054328 L93.1656897,37.4054328 L91.0253821,34.4042388 L88.8694077,37.4054328 Z M91.6345744,33.9194627 L95.6819974,39.5099104 L94.6721,39.5099104 L93.6706385,38.1122985 L88.364459,38.1122985 L87.3708308,39.5099104 L86.4085359,39.5099104 L90.4565615,33.9194627 L91.6345744,33.9194627 Z" id="Fill-13" fill="#1E252B"></path>
                <polygon id="Fill-15" fill="#1E252B" points="107.653018 39.5100896 106.787133 39.5100896 106.787133 34.5548657 103.068108 39.5100896 101.897928 39.5100896 98.1789026 34.5548657 98.1789026 39.5100896 97.3214538 39.5100896 97.3214538 33.9512836 98.7404923 33.9512836 102.499287 38.9936716 106.266518 33.9512836 107.653018 33.9512836"></polygon>
                <path d="M111.10101,35.2376716 C110.740074,35.5946866 110.55569,36.0317015 110.55569,36.730806 C110.55569,37.4293134 110.74851,37.8585672 111.108844,38.2155821 C111.517985,38.6203582 112.415203,38.9779701 114.082497,38.9779701 C115.757626,38.9779701 116.647613,38.6364776 117.072421,38.2155821 C117.417087,37.8740896 117.617138,37.4293134 117.617138,36.730806 C117.617138,36.0317015 117.417087,35.5946866 117.063985,35.2454328 C116.639177,34.8245373 115.757626,34.4830448 114.082497,34.4830448 C112.415203,34.4830448 111.525818,34.8167761 111.10101,35.2376716 M117.769587,34.7773731 C118.258267,35.2615522 118.490856,35.9045373 118.490856,36.730806 C118.490856,37.5487164 118.258267,38.1917015 117.761754,38.6758806 C117.232703,39.2084179 116.1746,39.6687164 114.082497,39.6687164 C111.998831,39.6687164 110.940728,39.2084179 110.411677,38.6842388 C109.914562,38.1917015 109.682574,37.5487164 109.682574,36.730806 C109.682574,35.9045373 109.914562,35.2693134 110.411677,34.7773731 C110.948562,34.2454328 111.998831,33.7922985 114.082497,33.7922985 C116.1746,33.7922985 117.232703,34.2454328 117.769587,34.7773731" id="Fill-17" fill="#1E252B"></path>
                <path d="M126.665723,38.5017313 C126.818172,38.3506866 126.87421,38.168 126.87421,37.969194 C126.87421,37.7787463 126.833838,37.6044179 126.697659,37.4688955 C126.497608,37.2706866 126.096903,37.1512836 123.932492,37.048597 C121.696377,36.9369552 120.975108,36.7465075 120.614172,36.3888955 C120.390018,36.1745672 120.302044,35.8653134 120.302044,35.5160597 C120.302044,35.1345672 120.390018,34.7769552 120.67021,34.4993433 C121.055249,34.1184478 121.864492,33.848 123.788479,33.848 C125.327428,33.848 126.54521,34.086209 127.291185,34.3560597 L127.291185,35.1029254 C126.417467,34.769194 125.062903,34.5148657 123.788479,34.5148657 C122.145287,34.5148657 121.592133,34.6975522 121.35171,34.9357612 C121.223364,35.0629254 121.167326,35.2378507 121.167326,35.4360597 C121.167326,35.6348657 121.223364,35.7853134 121.327608,35.888597 C121.543928,36.1029254 122.048877,36.2223284 124.036736,36.3178507 C126.449403,36.4372537 127.050159,36.6193433 127.411095,36.9769552 C127.643685,37.1996418 127.739492,37.5327761 127.739492,37.889791 C127.739492,38.2712836 127.643685,38.6366567 127.36289,38.9148657 C127.002556,39.2796418 126.265018,39.6211343 124.084941,39.6211343 C122.482121,39.6211343 121.007044,39.3596418 120.117659,38.9936716 L120.117659,38.247403 C120.982941,38.6288955 122.658069,38.9465075 124.084941,38.9465075 C125.896249,38.9465075 126.433133,38.7315821 126.665723,38.5017313" id="Fill-19" fill="#1E252B"></path>
                <path d="M137.576472,38.7953433 C139.099151,38.7953433 139.892728,38.5093731 140.261497,38.144 C140.598331,37.8186269 140.782715,37.3738507 140.782715,36.7308657 C140.782715,36.0872836 140.598331,35.6431045 140.261497,35.3171343 C139.892728,34.9517612 139.099151,34.665791 137.576472,34.665791 L134.546779,34.665791 L134.546779,38.7953433 L137.576472,38.7953433 Z M140.926728,38.6204179 C140.469985,39.0735522 139.548062,39.5099701 137.592741,39.5099701 L133.680895,39.5099701 L133.680895,33.9511642 L137.592741,33.9511642 C139.548062,33.9511642 140.469985,34.3875821 140.926728,34.8407164 C141.431677,35.3404179 141.656433,35.9762388 141.656433,36.7308657 C141.656433,37.4854925 141.431677,38.1207164 140.926728,38.6204179 L140.926728,38.6204179 Z" id="Fill-21" fill="#1E252B"></path>
                <polygon id="Fill-23" fill="#1E252B" points="150.748583 36.3494328 150.748583 37.0485373 144.512647 37.0485373 144.512647 38.795403 150.86066 38.795403 150.86066 39.5100299 143.655199 39.5100299 143.655199 33.9512239 150.86066 33.9512239 150.86066 34.6658507 144.512647 34.6658507 144.512647 36.3494328"></polygon>
                <path d="M157.723926,36.8499104 L161.474887,36.8499104 C162.596862,36.8499104 163.054208,36.6988657 163.294631,36.4606567 C163.470579,36.2857313 163.550721,36.0636418 163.550721,35.7460299 C163.550721,35.4361791 163.470579,35.1979701 163.278362,35.0152836 C163.037938,34.7770746 162.620964,34.6660299 161.474887,34.6660299 L157.723926,34.6660299 L157.723926,36.8499104 Z M161.467054,33.951403 C163.086144,33.951403 163.606759,34.1573731 163.991797,34.5388657 C164.296092,34.8403582 164.416605,35.2534925 164.416605,35.7221493 C164.416605,36.190806 164.296092,36.6033433 163.975528,36.913194 C163.639297,37.2463284 163.134349,37.5006567 161.819554,37.5406567 L165.097503,39.4863284 L165.097503,39.510209 L163.767041,39.510209 L160.505362,37.5406567 L157.723926,37.5406567 L157.723926,39.510209 L156.858041,39.510209 L156.858041,33.951403 L161.467054,33.951403 Z" id="Fill-25" fill="#1E252B"></path>
                <path d="M168.798933,37.4054328 L173.095215,37.4054328 L170.954908,34.4042388 L168.798933,37.4054328 Z M171.5641,33.9194627 L175.611523,39.5099104 L174.601626,39.5099104 L173.600164,38.1122985 L168.293985,38.1122985 L167.300356,39.5099104 L166.338062,39.5099104 L170.386087,33.9194627 L171.5641,33.9194627 Z" id="Fill-27" fill="#1E252B"></path>
                <mask id="mask-2" fill="white">
                    <use xlink:href="#path-1"></use>
                </mask>
                <g id="Clip-30"></g>
                <path d="M177.302077,39.5100896 L178.167962,39.5100896 L178.167962,33.9512836 L177.302077,33.9512836 L177.302077,39.5100896 Z M177.28641,33.2521791 L179.338141,32.1088955 L180.789115,32.1088955 L180.789115,32.1405373 L178.192064,33.2844179 L177.28641,33.2844179 L177.28641,33.2521791 Z" id="Fill-29" fill="#1E252B" mask="url(#mask-2)"></path>
                <polygon id="Fill-31" fill="#1E252B" mask="url(#mask-2)" points="180.254882 33.9511642 187.925523 33.9511642 187.925523 34.2604179 181.665485 38.7953433 187.829113 38.7953433 187.829113 39.5099701 179.966254 39.5099701 179.966254 39.2007164 186.226292 34.6580299 180.254882 34.6580299"></polygon>
                <polygon id="Fill-32" fill="#1E252B" mask="url(#mask-2)" points="0.183179487 25.806209 12.1669744 25.806209 12.1669744 13.9327761 0.183179487 13.9327761"></polygon>
                <path d="M0,6.11838806 L0,6.11838806 C0,2.73928358 2.7645641,0.000179104478 6.17507692,0.000179104478 L6.17507692,0.000179104478 C9.58558974,0.000179104478 12.3507564,2.73928358 12.3507564,6.11838806 L12.3507564,6.11838806 C12.3507564,9.49749254 9.58558974,12.236597 6.17507692,12.236597 L6.17507692,12.236597 C2.7645641,12.236597 0,9.49749254 0,6.11838806" id="Fill-33" fill="#1E252B" mask="url(#mask-2)"></path>
                <polygon id="Fill-34" fill="#1E252B" mask="url(#mask-2)" points="0.183179487 30.4271045 12.1669744 30.4271045 12.1669744 27.7954627 0.183179487 27.7954627"></polygon>
                <polygon id="Fill-35" fill="#1E252B" mask="url(#mask-2)" points="0.183179487 35.048 12.1669744 35.048 12.1669744 32.4163582 0.183179487 32.4163582"></polygon>
                <polygon id="Fill-36" fill="#1E252B" mask="url(#mask-2)" points="0.183179487 39.6688955 12.1669744 39.6688955 12.1669744 37.0372537 0.183179487 37.0372537"></polygon>
                <polygon id="Fill-37" fill="#1E252B" mask="url(#mask-2)" points="30.1432692 25.806806 32.7969615 25.806806 32.7969615 13.9333731 30.1432692 13.9333731"></polygon>
                <polygon id="Fill-38" fill="#1E252B" mask="url(#mask-2)" points="60.2403821 25.8066866 57.5866897 25.8066866 57.5866897 15.8669851 50.6361128 25.8066866 47.0412154 25.8066866 40.0900359 15.8669851 40.0900359 25.8066866 37.4538179 25.8066866 37.4538179 13.9332537 41.7850487 13.9332537 48.8898821 24.1780299 56.0115872 13.9332537 60.2403821 13.9332537"></polygon>
                <path d="M74.7076449,19.9207164 C76.6250038,19.9207164 77.3101192,19.6831045 77.6867218,19.3099701 C78.04585,18.9535522 78.1657603,18.5469851 78.1657603,17.9869851 C78.1657603,17.4275821 78.04585,17.0198209 77.6867218,16.664 C77.3101192,16.2908657 76.6250038,16.0532537 74.7076449,16.0532537 L67.414209,16.0532537 L67.414209,19.9207164 L74.7076449,19.9207164 Z M67.414209,22.0413134 L67.414209,25.8066866 L64.7611192,25.8066866 L64.7611192,13.9332537 L74.5708628,13.9332537 C77.9434141,13.9332537 79.0388756,14.4419104 79.8607731,15.2562388 C80.6139782,16.0025075 80.8025808,16.9523582 80.8025808,17.9529552 C80.8025808,18.9708657 80.5796321,19.9207164 79.8264269,20.6669851 C79.0220038,21.464597 77.8403756,22.0413134 74.5190423,22.0413134 L67.414209,22.0413134 Z" id="Fill-39" fill="#1E252B" mask="url(#mask-2)"></path>
                <polygon id="Fill-40" fill="#1E252B" mask="url(#mask-2)" points="98.796109 23.6355224 98.796109 25.8068657 84.0899295 25.8068657 84.0899295 13.9334328 86.7436218 13.9334328 86.7436218 23.6355224"></polygon>
                <path d="M106.432103,20.9047164 L114.016577,20.9047164 L110.215603,15.3578507 L106.432103,20.9047164 Z M112.081744,13.8653134 L120.418821,25.806806 L117.371654,25.806806 L115.454295,23.008 L104.994385,23.008 L103.076423,25.806806 L100.149167,25.806806 L108.486244,13.8653134 L112.081744,13.8653134 Z" id="Fill-41" fill="#1E252B" mask="url(#mask-2)"></path>
                <polygon id="Fill-42" fill="#1E252B" mask="url(#mask-2)" points="137.728197 23.5167761 137.728197 13.9328955 140.364415 13.9328955 140.364415 25.8069254 136.649608 25.8069254 125.693185 16.0534925 125.693185 25.8069254 123.056364 25.8069254 123.056364 13.9328955 126.959774 13.9328955"></polygon>
                <polygon id="Fill-43" fill="#1E252B" mask="url(#mask-2)" points="161.525683 16.0703881 153.873119 16.0703881 153.873119 25.8065075 151.219427 25.8065075 151.219427 16.0703881 143.566863 16.0703881 143.566863 13.9330746 161.525683 13.9330746"></polygon>
                <polygon id="Fill-44" fill="#1E252B" mask="url(#mask-2)" points="164.864551 25.806806 167.518244 25.806806 167.518244 13.9333731 164.864551 13.9333731"></polygon>
                <path d="M184.9638,23.2793433 C185.203621,23.0417313 185.289185,22.7533731 185.289185,22.4482985 C185.289185,22.0918806 185.203621,21.8202388 184.998146,21.6172537 C184.621544,21.2435224 183.919556,21.0912836 179.690762,20.8709851 C174.914236,20.6333731 173.459044,20.2429254 172.637146,19.429194 C172.158108,18.9539701 171.952633,18.2924776 171.952633,17.4441194 C171.952633,16.5790448 172.141236,15.7647164 172.791403,15.1205373 C173.630172,14.2894925 175.273967,13.7127761 179.485287,13.7127761 C182.824095,13.7127761 185.340403,14.187403 186.932377,14.8148657 L186.932377,17.0369552 C185.118056,16.2739701 182.104633,15.7139701 179.485287,15.7139701 C176.215774,15.7139701 175.273967,16.0196418 174.880492,16.4094925 C174.674415,16.6130746 174.588851,16.8847164 174.588851,17.2065075 C174.588851,17.5121791 174.674415,17.7665075 174.846146,17.9360597 C175.205274,18.2924776 176.0103,18.4960597 179.91371,18.6823284 C184.9638,18.9372537 186.367774,19.309791 187.189672,20.1241194 C187.66871,20.5993433 187.925403,21.3282985 187.925403,22.1766567 C187.925403,23.0590448 187.737403,23.8727761 187.086633,24.5175522 C186.230992,25.3659104 184.535979,26.027403 180.050492,26.027403 C176.729159,26.027403 173.476518,25.5014328 171.627249,24.7044179 L171.627249,22.4817313 C173.407826,23.3300896 177.191326,24.0256119 180.050492,24.0256119 C183.406172,24.0256119 184.484762,23.7539701 184.9638,23.2793433" id="Fill-45" fill="#1E252B" mask="url(#mask-2)"></path>
            </g>
        </g>
    </g>
</svg>